<svg width="32" height="38" viewBox="0 0 32 38" fill="none" xmlns="http://www.w3.org/2000/svg">
<path d="M26.3837 36.6438C24.3579 38.6076 22.1461 38.2975 20.017 37.3673C17.7638 36.4164 15.6966 36.3751 13.3194 37.3673C10.3428 38.6489 8.77176 38.2769 6.99403 36.6438C-3.09356 26.2462 -1.60523 10.412 9.84667 9.83316C12.6373 9.97786 14.5804 11.3628 16.2134 11.4869C18.6526 10.9907 20.9885 9.56443 23.5931 9.75047C26.7144 9.99853 29.071 11.2388 30.6213 13.4713C24.1719 17.3368 25.7016 25.8327 31.6135 28.2099C30.4353 31.3106 28.9056 34.3907 26.363 36.6645L26.3837 36.6438ZM16.0067 9.70913C15.6966 5.09943 19.4382 1.29591 23.7378 0.923828C24.3373 6.25702 18.9007 10.2259 16.0067 9.70913Z" fill="white"/>
</svg>
