<svg width="244" height="244" viewBox="0 0 244 244" fill="none" xmlns="http://www.w3.org/2000/svg">
<g clip-path="url(#clip0_789_4649)">
<path fill-rule="evenodd" clip-rule="evenodd" d="M65.31 45.4203C62.3038 64.1234 68.7119 85.8631 80.4202 106.128C97.9175 136.405 127.218 163.389 154.149 172.042C154.706 172.213 155.302 171.906 155.477 171.358C155.658 170.797 155.355 170.21 154.793 170.029C128.282 161.507 99.4761 134.886 82.2526 105.066C70.806 85.2624 64.4544 64.0382 67.4013 45.7566C67.4969 45.1766 67.1039 44.6385 66.5238 44.5429C65.9571 44.4526 65.4057 44.8403 65.31 45.4203Z" fill="#FF525F"/>
<path fill-rule="evenodd" clip-rule="evenodd" d="M181.909 190.938C166.565 185.128 153.683 178.474 136.233 178.764C135.646 178.781 135.175 179.256 135.193 179.843C135.197 180.425 135.681 180.891 136.259 180.878C155.459 180.562 169.03 188.841 186.628 194.906C187.58 195.23 187.997 194.602 188.084 194.444C188.217 194.212 188.352 193.802 188.037 193.319C187.975 193.224 187.826 193.056 187.585 192.85C187.114 192.466 186.091 191.765 185.663 191.407C184.439 190.362 183.248 189.292 182.024 188.247C178.523 185.259 175.065 182.243 171.832 178.977C159.717 166.779 149.733 156.882 149.374 139.087C149.366 138.496 148.885 138.038 148.294 138.046C147.717 138.06 147.25 138.544 147.264 139.122C147.63 157.53 157.805 167.853 170.329 180.472C173.61 183.773 177.111 186.838 180.646 189.854C181.073 190.213 181.491 190.576 181.909 190.938Z" fill="#FF525F"/>
</g>
<defs>
<clipPath id="clip0_789_4649">
<rect width="186" height="186" fill="white" transform="translate(0 72.5508) rotate(-22.958)"/>
</clipPath>
</defs>
</svg>
