<svg width="41" height="40" viewBox="0 0 41 40" fill="none" xmlns="http://www.w3.org/2000/svg">
<path fill-rule="evenodd" clip-rule="evenodd" d="M29.0858 0.585787C29.8668 -0.195262 31.1332 -0.195262 31.9142 0.585787L39.9142 8.58579C40.6953 9.36684 40.6953 10.6332 39.9142 11.4142L31.9142 19.4142C31.1332 20.1953 29.8668 20.1953 29.0858 19.4142C28.3047 18.6332 28.3047 17.3668 29.0858 16.5858L33.6716 12L6.5 12C5.39543 12 4.5 11.1046 4.5 10C4.5 8.89543 5.39543 8 6.5 8L33.6716 8L29.0858 3.41421C28.3047 2.63317 28.3047 1.36684 29.0858 0.585787ZM11.9142 20.5858C12.6953 21.3668 12.6953 22.6332 11.9142 23.4142L7.32843 28L34.5 28C35.6046 28 36.5 28.8954 36.5 30C36.5 31.1046 35.6046 32 34.5 32L7.32843 32L11.9142 36.5858C12.6953 37.3668 12.6953 38.6332 11.9142 39.4142C11.1332 40.1953 9.86683 40.1953 9.08578 39.4142L1.08579 31.4142C0.710714 31.0391 0.5 30.5304 0.5 30C0.5 29.4696 0.710714 28.9609 1.08579 28.5858L9.08579 20.5858C9.86684 19.8047 11.1332 19.8047 11.9142 20.5858Z" fill="#B51749"/>
</svg>
