<svg width="33" height="32" viewBox="0 0 33 32" fill="none" xmlns="http://www.w3.org/2000/svg">
<path fill-rule="evenodd" clip-rule="evenodd" d="M0.5 19C0.5 17.8954 1.39543 17 2.5 17H12.5C13.6046 17 14.5 17.8954 14.5 19V29C14.5 30.1046 13.6046 31 12.5 31H2.5C1.39543 31 0.5 30.1046 0.5 29V19ZM4.5 21V27H10.5V21H4.5Z" fill="#B51749"/>
<path fill-rule="evenodd" clip-rule="evenodd" d="M24.5 20C22.2909 20 20.5 21.7909 20.5 24C20.5 26.2091 22.2909 28 24.5 28C26.7091 28 28.5 26.2091 28.5 24C28.5 21.7909 26.7091 20 24.5 20ZM16.5 24C16.5 19.5817 20.0817 16 24.5 16C28.9183 16 32.5 19.5817 32.5 24C32.5 28.4183 28.9183 32 24.5 32C20.0817 32 16.5 28.4183 16.5 24Z" fill="#B51749"/>
<path fill-rule="evenodd" clip-rule="evenodd" d="M16.5 0C17.2025 0 17.8535 0.368598 18.215 0.971008L24.215 10.971C24.5857 11.5889 24.5954 12.3584 24.2404 12.9854C23.8854 13.6124 23.2205 14 22.5 14H10.5C9.77946 14 9.11461 13.6124 8.7596 12.9854C8.40459 12.3584 8.4143 11.5889 8.78501 10.971L14.785 0.971008C15.1465 0.368598 15.7975 0 16.5 0ZM14.0324 10H18.9676L16.5 5.8873L14.0324 10Z" fill="#B51749"/>
</svg>
