<svg width="28" height="28" viewBox="0 0 28 28" fill="none" xmlns="http://www.w3.org/2000/svg">
<path fill-rule="evenodd" clip-rule="evenodd" d="M21.6096 0.94863C22.1303 1.46933 22.1303 2.31355 21.6096 2.83425L19.8857 4.55811H23.3334C25.5426 4.55811 27.3334 6.34897 27.3334 8.55811V11.2248C27.3334 11.9612 26.7365 12.5581 26.0001 12.5581C25.2637 12.5581 24.6667 11.9612 24.6667 11.2248V8.55811C24.6667 7.82173 24.0698 7.22477 23.3334 7.22477H19.8857L21.6096 8.94863C22.1303 9.46933 22.1303 10.3135 21.6096 10.8342C21.0889 11.3549 20.2446 11.3549 19.7239 10.8342L15.7239 6.83425C15.2032 6.31355 15.2032 5.46933 15.7239 4.94863L19.7239 0.94863C20.2446 0.427931 21.0889 0.427931 21.6096 0.94863ZM6.66675 3.22477C4.8258 3.22477 3.33341 4.71716 3.33341 6.55811C3.33341 8.39906 4.8258 9.89144 6.66675 9.89144C8.5077 9.89144 10.0001 8.39906 10.0001 6.55811C10.0001 4.71716 8.5077 3.22477 6.66675 3.22477ZM0.666748 6.55811C0.666748 3.2444 3.35304 0.558107 6.66675 0.558107C9.98046 0.558107 12.6667 3.2444 12.6667 6.55811C12.6667 9.87181 9.98046 12.5581 6.66675 12.5581C3.35304 12.5581 0.666748 9.87182 0.666748 6.55811ZM21.3334 17.8914C19.4925 17.8914 18.0001 19.3838 18.0001 21.2248C18.0001 23.0657 19.4925 24.5581 21.3334 24.5581C23.1744 24.5581 24.6667 23.0657 24.6667 21.2248C24.6667 19.3838 23.1744 17.8914 21.3334 17.8914ZM15.3334 21.2248C15.3334 17.9111 18.0197 15.2248 21.3334 15.2248C24.6471 15.2248 27.3334 17.9111 27.3334 21.2248C27.3334 24.5385 24.6471 27.2248 21.3334 27.2248C18.0197 27.2248 15.3334 24.5385 15.3334 21.2248ZM2.00008 15.2248C2.73646 15.2248 3.33342 15.8217 3.33342 16.5581V19.2248C3.33342 19.9612 3.93037 20.5581 4.66675 20.5581H8.11446L6.39061 18.8342C5.86991 18.3135 5.86991 17.4693 6.39061 16.9486C6.9113 16.4279 7.75552 16.4279 8.27622 16.9486L12.2762 20.9486C12.7969 21.4693 12.7969 22.3135 12.2762 22.8342L8.27622 26.8342C7.75553 27.3549 6.91131 27.3549 6.39061 26.8342C5.86991 26.3135 5.86991 25.4693 6.39061 24.9486L8.11446 23.2248H4.66675C2.45761 23.2248 0.666749 21.4339 0.666749 19.2248L0.666749 16.5581C0.666748 15.8217 1.2637 15.2248 2.00008 15.2248Z" fill="white"/>
</svg>
