<svg width="24" height="28" viewBox="0 0 24 28" fill="none" xmlns="http://www.w3.org/2000/svg">
<path fill-rule="evenodd" clip-rule="evenodd" d="M6.66667 0.666687C5.93029 0.666687 5.33333 1.26364 5.33333 2.00002V20.6667C5.33333 21.4031 5.93029 22 6.66667 22H22.6667C23.403 22 24 21.4031 24 20.6667V2.00002C24 1.26364 23.403 0.666687 22.6667 0.666687H6.66667ZM8 19.3334V3.33335H21.3333V19.3334H8Z" fill="black"/>
<path d="M2.66667 7.33335C2.66667 6.59697 2.06971 6.00002 1.33333 6.00002C0.596954 6.00002 0 6.59697 0 7.33335V26C0 26.7364 0.596954 27.3334 1.33333 27.3334H17.3333C18.0697 27.3334 18.6667 26.7364 18.6667 26C18.6667 25.2636 18.0697 24.6667 17.3333 24.6667H2.66667V7.33335Z" fill="black"/>
</svg>
