<svg width="22" height="28" viewBox="0 0 22 28" fill="none" xmlns="http://www.w3.org/2000/svg">
<path fill-rule="evenodd" clip-rule="evenodd" d="M0.333496 3.33342C0.333496 1.86066 1.5274 0.666748 3.00016 0.666748H19.0002C20.4729 0.666748 21.6668 1.86065 21.6668 3.33341V24.6667C21.6668 26.1395 20.4729 27.3334 19.0002 27.3334H3.00016C1.5274 27.3334 0.333496 26.1395 0.333496 24.6667V3.33342ZM19.0002 3.33341L3.00016 3.33342V24.6667H19.0002V3.33341Z" fill="black"/>
<path fill-rule="evenodd" clip-rule="evenodd" d="M5.66683 14.0001C5.66683 13.2637 6.26378 12.6667 7.00016 12.6667H15.0002C15.7365 12.6667 16.3335 13.2637 16.3335 14.0001C16.3335 14.7365 15.7365 15.3334 15.0002 15.3334H7.00016C6.26378 15.3334 5.66683 14.7365 5.66683 14.0001Z" fill="black"/>
<path fill-rule="evenodd" clip-rule="evenodd" d="M5.66683 19.3334C5.66683 18.597 6.26378 18.0001 7.00016 18.0001H11.0002C11.7365 18.0001 12.3335 18.597 12.3335 19.3334C12.3335 20.0698 11.7365 20.6667 11.0002 20.6667H7.00016C6.26378 20.6667 5.66683 20.0698 5.66683 19.3334Z" fill="black"/>
<path fill-rule="evenodd" clip-rule="evenodd" d="M5.66683 8.66675C5.66683 7.93037 6.26378 7.33342 7.00016 7.33342H15.0002C15.7365 7.33342 16.3335 7.93037 16.3335 8.66675C16.3335 9.40313 15.7365 10.0001 15.0002 10.0001H7.00016C6.26378 10.0001 5.66683 9.40313 5.66683 8.66675Z" fill="black"/>
</svg>
