<svg width="27" height="27" viewBox="0 0 27 27" fill="none" xmlns="http://www.w3.org/2000/svg">
<path fill-rule="evenodd" clip-rule="evenodd" d="M8 0C8.73638 -1.58946e-07 9.33333 0.596954 9.33333 1.33333V2.66667L17.3333 2.66667V1.33333C17.3333 0.596954 17.9303 0 18.6667 0C19.403 0 20 0.596954 20 1.33333V2.66667H21.3333C24.2789 2.66667 26.6667 5.05448 26.6667 8V24C26.6667 25.4728 25.4728 26.6667 24 26.6667H2.66667C1.19391 26.6667 0 25.4728 0 24L7.15256e-07 8C7.94729e-07 5.05448 2.38782 2.66667 5.33333 2.66667H6.66667V1.33333C6.66667 0.596954 7.26362 7.94729e-08 8 0ZM6.66667 5.33333H5.33333C3.86058 5.33333 2.66667 6.52724 2.66667 8V10.6667L24 10.6667V8C24 6.52724 22.8061 5.33333 21.3333 5.33333H20V6.66667C20 7.40305 19.403 8 18.6667 8C17.9303 8 17.3333 7.40305 17.3333 6.66667V5.33333L9.33333 5.33333V6.66667C9.33333 7.40305 8.73638 8 8 8C7.26362 8 6.66667 7.40305 6.66667 6.66667V5.33333ZM24 13.3333L2.66667 13.3333L2.66667 24H24V13.3333ZM17.6095 15.7239C18.1302 16.2446 18.1302 17.0888 17.6095 17.6095L13.6095 21.6095C13.1403 22.0787 12.3975 22.1315 11.8667 21.7333L9.2 19.7333C8.6109 19.2915 8.49151 18.4558 8.93333 17.8667C9.37516 17.2776 10.2109 17.1582 10.8 17.6L12.5416 18.9062L15.7239 15.7239C16.2446 15.2032 17.0888 15.2032 17.6095 15.7239Z" fill="black"/>
</svg>
