<svg width="32" height="32" viewBox="0 0 32 32" fill="none" xmlns="http://www.w3.org/2000/svg">
<path fill-rule="evenodd" clip-rule="evenodd" d="M10 12.8C10 12.1373 10.5373 11.6 11.2 11.6H12.4V10.4C12.4 8.41178 14.0118 6.8 16 6.8C17.9882 6.8 19.6 8.41178 19.6 10.4V11.6H20.8C21.4627 11.6 22 12.1373 22 12.8V19.2C22 19.8627 21.4627 20.4 20.8 20.4H11.2C10.5373 20.4 10 19.8627 10 19.2V12.8ZM17.2 11.6V10.4C17.2 9.73726 16.6627 9.2 16 9.2C15.3373 9.2 14.8 9.73726 14.8 10.4V11.6H17.2ZM19.6 14V18H12.4V14H19.6Z" fill="black"/>
<path fill-rule="evenodd" clip-rule="evenodd" d="M15.4031 0.115523C15.7861 -0.0385077 16.2139 -0.0385077 16.5969 0.115523L30.9969 5.906C31.603 6.14969 32 6.73729 32 7.39048C32 9.59134 31.1186 13.9851 28.8359 18.6296C26.536 23.309 22.7425 28.39 16.7938 31.7892C16.3019 32.0703 15.6981 32.0703 15.2062 31.7892C9.25755 28.39 5.46395 23.309 3.16406 18.6296C0.881354 13.9851 0 9.59134 0 7.39048C0 6.73729 0.397045 6.14969 1.00307 5.906L15.4031 0.115523ZM3.27047 8.44327C3.49625 10.3879 4.29125 13.6683 6.03594 17.2181C8.02829 21.2718 11.1963 25.5469 16 28.5372C20.8037 25.5469 23.9717 21.2718 25.9641 17.2181C27.7088 13.6683 28.5038 10.3879 28.7295 8.44327L16 3.32451L3.27047 8.44327Z" fill="black"/>
</svg>
