<svg width="28" height="28" viewBox="0 0 28 28" fill="none" xmlns="http://www.w3.org/2000/svg">
<path fill-rule="evenodd" clip-rule="evenodd" d="M14.0001 3.22465C8.10904 3.22465 3.33341 8.00028 3.33341 13.8913C3.33341 19.7824 8.10904 24.558 14.0001 24.558C19.8911 24.558 24.6667 19.7824 24.6667 13.8913C24.6667 8.00028 19.8911 3.22465 14.0001 3.22465ZM0.666748 13.8913C0.666748 6.52752 6.63628 0.557983 14.0001 0.557983C21.3639 0.557983 27.3334 6.52752 27.3334 13.8913C27.3334 21.2551 21.3639 27.2247 14.0001 27.2247C6.63628 27.2247 0.666748 21.2551 0.666748 13.8913ZM14.0001 5.89132C14.7365 5.89132 15.3334 6.48827 15.3334 7.22465V7.79013C15.9692 7.87427 16.599 8.01885 17.2141 8.22388L18.4217 8.62641C19.1203 8.85927 19.4979 9.61436 19.265 10.313C19.0321 11.0115 18.277 11.3891 17.5784 11.1562L16.3709 10.7537C16.0303 10.6402 15.6835 10.5518 15.3334 10.4885V12.7618L16.4428 12.9467C18.1108 13.2247 19.3334 14.6679 19.3334 16.359V16.6184C19.3334 17.9525 18.4797 19.1369 17.2141 19.5588C16.599 19.7638 15.9692 19.9084 15.3334 19.9925V20.558C15.3334 21.2944 14.7365 21.8913 14.0001 21.8913C13.2637 21.8913 12.6667 21.2944 12.6667 20.558V19.9925C12.0309 19.9084 11.4011 19.7638 10.786 19.5588L9.57844 19.1562C8.87985 18.9234 8.50231 18.1683 8.73517 17.4697C8.96803 16.7711 9.72313 16.3935 10.4217 16.6264L11.6293 17.0289C11.9699 17.1425 12.3166 17.2309 12.6667 17.2942V15.0208L11.5574 14.8359C9.88932 14.5579 8.66675 13.1147 8.66675 11.4237V11.1642C8.66675 9.83015 9.52042 8.64575 10.786 8.22388C11.4011 8.01885 12.0309 7.87427 12.6667 7.79013V7.22465C12.6667 6.48827 13.2637 5.89132 14.0001 5.89132ZM12.6667 10.4885C12.3166 10.5518 11.9699 10.6402 11.6293 10.7537C11.4526 10.8126 11.3334 10.978 11.3334 11.1642V11.4237C11.3334 11.8111 11.6136 12.1418 11.9958 12.2055L12.6667 12.3174V10.4885ZM15.3334 15.4653V17.2942C15.6835 17.2309 16.0303 17.1425 16.3709 17.0289C16.5476 16.97 16.6667 16.8047 16.6667 16.6184V16.359C16.6667 15.9715 16.3866 15.6408 16.0044 15.5771L15.3334 15.4653Z" fill="white"/>
</svg>
