<svg width="13" height="10" viewBox="0 0 13 10" fill="none" xmlns="http://www.w3.org/2000/svg">
<path d="M6.49995 9.35205C6.24466 9.35076 5.99285 9.29266 5.76281 9.18196C5.53276 9.07127 5.33024 8.91075 5.16995 8.71205L0.959947 3.61205C0.713941 3.30502 0.559133 2.93505 0.513164 2.54432C0.467195 2.15358 0.531914 1.75779 0.699947 1.40205C0.836227 1.09288 1.05862 0.829464 1.34057 0.643273C1.62251 0.457083 1.95209 0.355984 2.28995 0.352051H10.7099C11.0478 0.355984 11.3774 0.457083 11.6593 0.643273C11.9413 0.829464 12.1637 1.09288 12.2999 1.40205C12.468 1.75779 12.5327 2.15358 12.4867 2.54432C12.4408 2.93505 12.286 3.30502 12.0399 3.61205L7.82995 8.71205C7.66965 8.91075 7.46713 9.07127 7.23709 9.18196C7.00704 9.29266 6.75524 9.35076 6.49995 9.35205Z" fill="#99143F"/>
</svg>
