<svg width="25" height="29" viewBox="0 0 25 29" fill="none" xmlns="http://www.w3.org/2000/svg">
<path d="M0.333496 3.0652C0.333496 1.52841 1.5274 0.282593 3.00016 0.282593H19.0002C20.4729 0.282593 21.6668 1.52841 21.6668 3.0652V12.8043C21.6668 13.5727 21.0699 14.1956 20.3335 14.1956C19.5971 14.1956 19.0002 13.5727 19.0002 12.8043V3.0652L3.00016 3.0652V25.3261H11.0002C11.7365 25.3261 12.3335 25.949 12.3335 26.7174C12.3335 27.4858 11.7365 28.1087 11.0002 28.1087H3.00016C1.5274 28.1087 0.333496 26.8629 0.333496 25.3261V3.0652Z" fill="white"/>
<path d="M19.0002 16.9782C18.2638 16.9782 17.6668 17.6012 17.6668 18.3695V21.1522H15.0002C14.2638 21.1522 13.6668 21.7751 13.6668 22.5435C13.6668 23.3119 14.2638 23.9348 15.0002 23.9348H17.6668V26.7174C17.6668 27.4858 18.2638 28.1087 19.0002 28.1087C19.7365 28.1087 20.3335 27.4858 20.3335 26.7174V23.9348H23.0002C23.7365 23.9348 24.3335 23.3119 24.3335 22.5435C24.3335 21.7751 23.7365 21.1522 23.0002 21.1522H20.3335V18.3695C20.3335 17.6012 19.7365 16.9782 19.0002 16.9782Z" fill="white"/>
<path d="M7.00016 12.8043C6.26378 12.8043 5.66683 13.4272 5.66683 14.1956C5.66683 14.964 6.26378 15.5869 7.00016 15.5869H15.0002C15.7365 15.5869 16.3335 14.964 16.3335 14.1956C16.3335 13.4272 15.7365 12.8043 15.0002 12.8043H7.00016Z" fill="white"/>
<path d="M5.66683 19.7609C5.66683 18.9925 6.26378 18.3695 7.00016 18.3695H11.0002C11.7365 18.3695 12.3335 18.9925 12.3335 19.7609C12.3335 20.5293 11.7365 21.1522 11.0002 21.1522H7.00016C6.26378 21.1522 5.66683 20.5293 5.66683 19.7609Z" fill="white"/>
<path d="M7.00016 7.23911C6.26378 7.23911 5.66683 7.86202 5.66683 8.63042C5.66683 9.39882 6.26378 10.0217 7.00016 10.0217H15.0002C15.7365 10.0217 16.3335 9.39882 16.3335 8.63042C16.3335 7.86202 15.7365 7.23911 15.0002 7.23911H7.00016Z" fill="white"/>
</svg>
