<svg width="50" height="38" viewBox="0 0 50 38" fill="none" xmlns="http://www.w3.org/2000/svg">
<g clip-path="url(#clip0_849_6271)">
<path d="M34.3837 36.6438C32.3579 38.6076 30.1461 38.2975 28.017 37.3673C25.7638 36.4164 23.6966 36.3751 21.3194 37.3673C18.3428 38.6489 16.7718 38.2769 14.994 36.6438C4.90644 26.2462 6.39477 10.412 17.8467 9.83316C20.6373 9.97786 22.5804 11.3628 24.2134 11.4869C26.6526 10.9907 28.9885 9.56443 31.5931 9.75047C34.7144 9.99853 37.071 11.2388 38.6213 13.4713C32.1719 17.3368 33.7016 25.8327 39.6135 28.2099C38.4353 31.3106 36.9056 34.3907 34.363 36.6645L34.3837 36.6438ZM24.0067 9.70913C23.6966 5.09943 27.4382 1.29591 31.7378 0.923828C32.3373 6.25702 26.9007 10.2259 24.0067 9.70913Z" fill="white"/>
</g>
<defs>
<clipPath id="clip0_849_6271">
<rect width="49.6111" height="38" fill="white" transform="translate(0.194336)"/>
</clipPath>
</defs>
</svg>
