<svg width="20" height="21" viewBox="0 0 20 21" fill="none" xmlns="http://www.w3.org/2000/svg">
<path d="M11.0281 0.718972C11.7578 0.716244 12.4876 0.72339 13.2171 0.740408L13.4111 0.747229C13.6351 0.755024 13.8561 0.764767 14.1231 0.776459C15.1871 0.825177 15.9131 0.98887 16.5501 1.22954C17.2101 1.47702 17.7661 1.8122 18.3221 2.35395C18.8305 2.84074 19.2239 3.42959 19.4751 4.07954C19.7221 4.7002 19.8901 5.40856 19.9401 6.44528C19.9521 6.70446 19.9621 6.92077 19.9701 7.13902L19.9761 7.32805C19.9939 8.03854 20.0015 8.74925 19.9991 9.45995L20.0001 10.1868V11.4632C20.0026 12.1743 19.9949 12.8853 19.9771 13.5961L19.9711 13.7851C19.9631 14.0034 19.9531 14.2187 19.9411 14.4789C19.8911 15.5156 19.7211 16.223 19.4751 16.8436C19.2247 17.4943 18.8312 18.0836 18.3221 18.5702C17.8221 19.0655 17.2174 19.4488 16.5501 19.6936C15.9131 19.9343 15.1871 20.098 14.1231 20.1467C13.8561 20.1584 13.6351 20.1682 13.4111 20.1759L13.2171 20.1818C12.4876 20.1991 11.7578 20.2066 11.0281 20.2042L10.2821 20.2052H8.97309C8.24335 20.2076 7.51361 20.2001 6.78409 20.1828L6.59009 20.1769C6.3527 20.1685 6.11536 20.1588 5.87809 20.1477C4.81409 20.099 4.08809 19.9333 3.45009 19.6936C2.78277 19.4494 2.17833 19.066 1.67909 18.5702C1.17013 18.0833 0.776313 17.4941 0.525089 16.8436C0.278089 16.223 0.110089 15.5156 0.0600887 14.4789C0.0489516 14.2477 0.0389515 14.0164 0.0300887 13.7851L0.0250888 13.5961C0.0066524 12.8853 -0.00168183 12.1743 8.87195e-05 11.4632V9.45995C-0.00270225 8.74925 0.00463187 8.03855 0.0220888 7.32805L0.0290888 7.13902C0.0370888 6.92077 0.0470887 6.70446 0.0590887 6.44528C0.109089 5.40759 0.277089 4.70118 0.524089 4.07954C0.775461 3.42927 1.17005 2.84059 1.68009 2.35492C2.17898 1.85873 2.78305 1.47466 3.45009 1.22954C4.08809 0.98887 4.81309 0.825177 5.87809 0.776459L6.59009 0.747229L6.78409 0.742357C7.51327 0.724402 8.24267 0.716282 8.97209 0.717998L11.0281 0.718972ZM10.0001 5.59077C9.33759 5.58164 8.67985 5.70089 8.06507 5.9416C7.45029 6.18231 6.89074 6.53967 6.41893 6.99292C5.94713 7.44617 5.57249 7.98627 5.31678 8.58182C5.06106 9.17737 4.92938 9.8165 4.92938 10.4621C4.92938 11.1076 5.06106 11.7468 5.31678 12.3423C5.57249 12.9379 5.94713 13.478 6.41893 13.9312C6.89074 14.3845 7.45029 14.7418 8.06507 14.9825C8.67985 15.2233 9.33759 15.3425 10.0001 15.3334C11.3262 15.3334 12.5979 14.8201 13.5356 13.9065C14.4733 12.9928 15.0001 11.7537 15.0001 10.4616C15.0001 9.16951 14.4733 7.93035 13.5356 7.01671C12.5979 6.10307 11.3262 5.59077 10.0001 5.59077ZM10.0001 7.53949C10.3986 7.53233 10.7946 7.60262 11.1649 7.74625C11.5352 7.88988 11.8724 8.10397 12.1569 8.37602C12.4413 8.64806 12.6673 8.9726 12.8215 9.33069C12.9758 9.68878 13.0553 10.0732 13.0554 10.4616C13.0554 10.8499 12.9761 11.2344 12.8219 11.5925C12.6678 11.9507 12.4419 12.2753 12.1576 12.5474C11.8732 12.8196 11.5361 13.0338 11.1658 13.1775C10.7955 13.3213 10.3996 13.3917 10.0011 13.3847C9.20544 13.3847 8.44238 13.0767 7.87977 12.5285C7.31716 11.9803 7.00109 11.2368 7.00109 10.4616C7.00109 9.68634 7.31716 8.94284 7.87977 8.39466C8.44238 7.84648 9.20544 7.53851 10.0011 7.53851L10.0001 7.53949ZM15.2501 4.12923C14.9275 4.14181 14.6224 4.27553 14.3987 4.50238C14.175 4.72923 14.0501 5.03162 14.0501 5.3462C14.0501 5.66079 14.175 5.96317 14.3987 6.19003C14.6224 6.41688 14.9275 6.5506 15.2501 6.56318C15.5816 6.56318 15.8996 6.43486 16.134 6.20645C16.3684 5.97804 16.5001 5.66825 16.5001 5.34523C16.5001 5.02221 16.3684 4.71242 16.134 4.48401C15.8996 4.2556 15.5816 4.12728 15.2501 4.12728V4.12923Z" fill="white"/>
</svg>
