<svg width="32" height="33" viewBox="0 0 32 33" fill="none" xmlns="http://www.w3.org/2000/svg">
<g clip-path="url(#clip0_1219_3950)">
<path fill-rule="evenodd" clip-rule="evenodd" d="M16.0001 6.22465C10.109 6.22465 5.33341 11.0003 5.33341 16.8913C5.33341 22.7824 10.109 27.558 16.0001 27.558C21.8911 27.558 26.6667 22.7824 26.6667 16.8913C26.6667 11.0003 21.8911 6.22465 16.0001 6.22465ZM2.66675 16.8913C2.66675 9.52752 8.63628 3.55798 16.0001 3.55798C23.3639 3.55798 29.3334 9.52752 29.3334 16.8913C29.3334 24.2551 23.3639 30.2247 16.0001 30.2247C8.63628 30.2247 2.66675 24.2551 2.66675 16.8913ZM16.0001 8.89132C16.7365 8.89132 17.3334 9.48827 17.3334 10.2247V10.7901C17.9692 10.8743 18.599 11.0188 19.2141 11.2239L20.4217 11.6264C21.1203 11.8593 21.4979 12.6144 21.265 13.313C21.0321 14.0115 20.277 14.3891 19.5784 14.1562L18.3709 13.7537C18.0303 13.6402 17.6835 13.5518 17.3334 13.4885V15.7618L18.4428 15.9467C20.1108 16.2247 21.3334 17.6679 21.3334 19.359V19.6184C21.3334 20.9525 20.4797 22.1369 19.2141 22.5588C18.599 22.7638 17.9692 22.9084 17.3334 22.9925V23.558C17.3334 24.2944 16.7365 24.8913 16.0001 24.8913C15.2637 24.8913 14.6667 24.2944 14.6667 23.558V22.9925C14.0309 22.9084 13.4011 22.7638 12.786 22.5588L11.5784 22.1562C10.8799 21.9234 10.5023 21.1683 10.7352 20.4697C10.968 19.7711 11.7231 19.3935 12.4217 19.6264L13.6293 20.0289C13.9699 20.1425 14.3166 20.2309 14.6667 20.2942V18.0208L13.5574 17.8359C11.8893 17.5579 10.6667 16.1147 10.6667 14.4237V14.1642C10.6667 12.8302 11.5204 11.6457 12.786 11.2239C13.4011 11.0188 14.0309 10.8743 14.6667 10.7901V10.2247C14.6667 9.48827 15.2637 8.89132 16.0001 8.89132ZM14.6667 13.4885C14.3166 13.5518 13.9699 13.6402 13.6293 13.7537C13.4526 13.8126 13.3334 13.978 13.3334 14.1642V14.4237C13.3334 14.8111 13.6136 15.1418 13.9958 15.2055L14.6667 15.3174V13.4885ZM17.3334 18.4653V20.2942C17.6835 20.2309 18.0303 20.1425 18.3709 20.0289C18.5476 19.97 18.6667 19.8047 18.6667 19.6184V19.359C18.6667 18.9715 18.3866 18.6408 18.0044 18.5771L17.3334 18.4653Z" fill="white"/>
</g>
<defs>
<clipPath id="clip0_1219_3950">
<rect width="26.6667" height="26.6667" fill="white" transform="translate(2.66675 3.55798)"/>
</clipPath>
</defs>
</svg>
