<svg width="34" height="38" viewBox="0 0 34 38" fill="none" xmlns="http://www.w3.org/2000/svg">
<path d="M1.16931 0.16718C1.36232 0.0567755 1.58098 -0.000879251 1.80333 1.0136e-05C2.02567 0.000899523 2.24387 0.0603018 2.43598 0.172246L22.3049 11.7622L16.1565 17.295L0.533448 3.23505V1.26665C0.533264 1.04363 0.591966 0.824513 0.703619 0.631456C0.815272 0.438399 0.975918 0.278243 1.16931 0.16718ZM0.533448 6.64491V31.355L14.2641 19L0.533448 6.64491ZM0.533448 34.7649V36.7333C0.533382 36.9562 0.592123 37.1751 0.703741 37.368C0.815358 37.561 0.9759 37.721 1.16916 37.832C1.36241 37.943 1.58154 38.0011 1.80441 38.0003C2.02729 37.9996 2.24602 37.94 2.43851 37.8277L22.3049 26.2377L16.1565 20.7049L0.533448 34.7649ZM24.6026 24.8976L32.836 20.0944C33.0273 19.9829 33.1861 19.8231 33.2965 19.6311C33.4068 19.4391 33.4649 19.2215 33.4649 19C33.4649 18.7785 33.4068 18.5609 33.2965 18.3689C33.1861 18.1768 33.0273 18.0171 32.836 17.9056L24.6026 13.1024L18.0489 19L24.6026 24.8976Z" fill="white"/>
</svg>
