<svg width="49" height="48" viewBox="0 0 49 48" fill="none" xmlns="http://www.w3.org/2000/svg">
<path d="M47.8812 1.00091C48.8553 2.15094 48.6579 3.82906 47.4402 4.74908L33.3226 15.4157C32.2914 16.1949 30.8262 16.1949 29.795 15.4157L17.4412 6.08176L5.08746 15.4157C3.86978 16.3358 2.09296 16.1493 1.11882 14.9993C0.144684 13.8493 0.342108 12.1711 1.55978 11.2511L15.6774 0.584448C16.7086 -0.194685 18.1738 -0.194685 19.205 0.584448L31.5588 9.91843L43.9125 0.584448C45.1302 -0.335577 46.907 -0.14912 47.8812 1.00091Z" fill="#B51749"/>
<path d="M3.32352 24C4.8829 24 6.14703 25.1939 6.14703 26.6667V45.3333C6.14703 46.8061 4.8829 48 3.32352 48C1.76413 48 0.5 46.8061 0.5 45.3333V26.6667C0.5 25.1939 1.76413 24 3.32352 24Z" fill="#B51749"/>
<path d="M20.2646 18.6667C20.2646 17.1939 19.0005 16 17.4411 16C15.8817 16 14.6176 17.1939 14.6176 18.6667V45.3333C14.6176 46.8061 15.8817 48 17.4411 48C19.0005 48 20.2646 46.8061 20.2646 45.3333V18.6667Z" fill="#B51749"/>
<path d="M31.5587 24C33.1181 24 34.3822 25.1939 34.3822 26.6667V45.3333C34.3822 46.8061 33.1181 48 31.5587 48C29.9993 48 28.7352 46.8061 28.7352 45.3333V26.6667C28.7352 25.1939 29.9993 24 31.5587 24Z" fill="#B51749"/>
<path d="M48.4998 18.6667C48.4998 17.1939 47.2357 16 45.6763 16C44.1169 16 42.8528 17.1939 42.8528 18.6667V45.3333C42.8528 46.8061 44.1169 48 45.6763 48C47.2357 48 48.4998 46.8061 48.4998 45.3333V18.6667Z" fill="#B51749"/>
</svg>
