<svg width="37" height="40" viewBox="0 0 37 40" fill="none" xmlns="http://www.w3.org/2000/svg">
<path fill-rule="evenodd" clip-rule="evenodd" d="M4.5 2C4.5 0.89543 3.60457 0 2.5 0C1.39543 0 0.5 0.89543 0.5 2V35C0.5 36.1046 1.39543 37 2.5 37H14.5V38C14.5 39.1046 15.3954 40 16.5 40H34.5C35.6046 40 36.5 39.1046 36.5 38V32C36.5 30.8954 35.6046 30 34.5 30H16.5C15.3954 30 14.5 30.8954 14.5 32V33H4.5V25H14.5V26C14.5 27.1046 15.3954 28 16.5 28H34.5C35.6046 28 36.5 27.1046 36.5 26V20C36.5 18.8954 35.6046 18 34.5 18H16.5C15.3954 18 14.5 18.8954 14.5 20V21H4.5V13H14.5V14C14.5 15.1046 15.3954 16 16.5 16H34.5C35.6046 16 36.5 15.1046 36.5 14V8C36.5 6.89543 35.6046 6 34.5 6H16.5C15.3954 6 14.5 6.89543 14.5 8V9H4.5V2ZM32.5 36H18.5V34H32.5V36ZM18.5 22V24H32.5V22H18.5ZM18.5 12V10H32.5V12H18.5Z" fill="#B51749"/>
</svg>
