<svg width="41" height="40" viewBox="0 0 41 40" fill="none" xmlns="http://www.w3.org/2000/svg">
<path fill-rule="evenodd" clip-rule="evenodd" d="M31.9142 0.585786C32.6953 1.36683 32.6953 2.63316 31.9142 3.41421L29.3284 6H34.5C37.8137 6 40.5 8.68629 40.5 12V16C40.5 17.1046 39.6046 18 38.5 18C37.3954 18 36.5 17.1046 36.5 16V12C36.5 10.8954 35.6046 10 34.5 10H29.3284L31.9142 12.5858C32.6953 13.3668 32.6953 14.6332 31.9142 15.4142C31.1332 16.1953 29.8668 16.1953 29.0858 15.4142L23.0858 9.41422C22.3047 8.63317 22.3047 7.36684 23.0858 6.58579L29.0858 0.585787C29.8668 -0.195262 31.1332 -0.195262 31.9142 0.585786ZM9.5 4C6.73858 4 4.5 6.23858 4.5 9C4.5 11.7614 6.73858 14 9.5 14C12.2614 14 14.5 11.7614 14.5 9C14.5 6.23858 12.2614 4 9.5 4ZM0.5 9C0.5 4.02944 4.52944 2.17557e-06 9.5 1.93715e-06C14.4706 1.69873e-06 18.5 4.02944 18.5 9C18.5 13.9706 14.4706 18 9.5 18C4.52944 18 0.5 13.9706 0.5 9ZM31.5 26C28.7386 26 26.5 28.2386 26.5 31C26.5 33.7614 28.7386 36 31.5 36C34.2614 36 36.5 33.7614 36.5 31C36.5 28.2386 34.2614 26 31.5 26ZM22.5 31C22.5 26.0294 26.5294 22 31.5 22C36.4706 22 40.5 26.0294 40.5 31C40.5 35.9706 36.4706 40 31.5 40C26.5294 40 22.5 35.9706 22.5 31ZM2.5 22C3.60457 22 4.5 22.8954 4.5 24V28C4.5 29.1046 5.39543 30 6.5 30H11.6716L9.08579 27.4142C8.30474 26.6332 8.30474 25.3668 9.08579 24.5858C9.86683 23.8047 11.1332 23.8047 11.9142 24.5858L17.9142 30.5858C18.6953 31.3668 18.6953 32.6332 17.9142 33.4142L11.9142 39.4142C11.1332 40.1953 9.86684 40.1953 9.08579 39.4142C8.30474 38.6332 8.30474 37.3668 9.08579 36.5858L11.6716 34H6.5C3.18629 34 0.500001 31.3137 0.500001 28L0.500001 24C0.500001 22.8954 1.39543 22 2.5 22Z" fill="#B51749"/>
</svg>
