<svg width="41" height="40" viewBox="0 0 41 40" fill="none" xmlns="http://www.w3.org/2000/svg">
<path d="M20.5 4C11.6634 4 4.5 11.1634 4.5 20C4.5 21.1046 3.60457 22 2.5 22C1.39543 22 0.5 21.1046 0.5 20C0.5 8.9543 9.4543 0 20.5 0C25.9522 0 30.8941 2.1827 34.5001 5.71749L34.5001 4.00002C34.5001 2.89544 35.3955 2.00001 36.5 2C37.6046 1.99999 38.5001 2.89542 38.5001 3.99998L38.5001 11.7402C38.5001 12.3452 38.2262 12.9178 37.7551 13.2975C37.2839 13.6771 36.6663 13.8231 36.075 13.6945L28.0749 11.9543C26.9956 11.7196 26.3109 10.6543 26.5457 9.57493C26.7805 8.4956 27.8458 7.81095 28.9251 8.04572L31.7984 8.67071C28.9026 5.78245 24.9092 4 20.5 4Z" fill="#B51749"/>
<path d="M38.5 18C39.6046 18 40.5 18.8954 40.5 20C40.5 31.0457 31.5457 40 20.5 40C15.0478 40 10.1059 37.8173 6.49993 34.2825L6.49994 36C6.49995 37.1046 5.60452 38 4.49995 38C3.39539 38 2.49995 37.1046 2.49994 36L2.49989 28.2598C2.49988 27.6548 2.7738 27.0822 3.24493 26.7025C3.71605 26.3229 4.33373 26.1769 4.92498 26.3055L12.9251 28.0457C14.0044 28.2804 14.6891 29.3457 14.4543 30.4251C14.2195 31.5044 13.1542 32.189 12.0749 31.9543L9.20162 31.3293C12.0974 34.2176 16.0908 36 20.5 36C29.3366 36 36.5 28.8366 36.5 20C36.5 18.8954 37.3954 18 38.5 18Z" fill="#B51749"/>
<path fill-rule="evenodd" clip-rule="evenodd" d="M20.4998 10.5C21.3282 10.5 21.9998 11.1716 21.9998 12V12.7665C22.7861 12.8648 23.565 13.0406 24.325 13.2939L25.7741 13.777C26.5601 14.0389 26.9848 14.8884 26.7228 15.6743C26.4609 16.4603 25.6114 16.885 24.8255 16.623L23.3764 16.14C22.9249 15.9895 22.4647 15.8754 21.9998 15.7977V18.7293L23.4146 18.9651C25.3681 19.2907 26.7998 20.9808 26.7998 22.9612V23.2725C26.7998 24.8304 25.8029 26.2134 24.325 26.7061C23.565 26.9594 22.7861 27.1352 21.9998 27.2335V28C21.9998 28.8284 21.3282 29.5 20.4998 29.5C19.6714 29.5 18.9998 28.8284 18.9998 28V27.2335C18.2136 27.1352 17.4346 26.9594 16.6746 26.7061L15.2255 26.223C14.4395 25.9611 14.0148 25.1116 14.2768 24.3257C14.5388 23.5397 15.3882 23.115 16.1741 23.377L17.6233 23.86C18.0747 24.0105 18.535 24.1246 18.9998 24.2023V21.2707L17.585 21.0349C15.6316 20.7093 14.1998 19.0192 14.1998 17.0388V16.7275C14.1998 15.1696 15.1967 13.7866 16.6746 13.2939C17.4346 13.0406 18.2136 12.8648 18.9998 12.7665V12C18.9998 11.1716 19.6714 10.5 20.4998 10.5ZM18.9998 15.7977C18.535 15.8754 18.0747 15.9895 17.6233 16.14C17.3704 16.2243 17.1998 16.4609 17.1998 16.7275V17.0388C17.1998 17.5527 17.5713 17.9912 18.0782 18.0757L18.9998 18.2293V15.7977ZM21.9998 24.2023C22.4647 24.1246 22.9249 24.0105 23.3764 23.86C23.6292 23.7757 23.7998 23.5391 23.7998 23.2725V22.9612C23.7998 22.4473 23.4283 22.0088 22.9214 21.9243L21.9998 21.7707V24.2023Z" fill="#B51749"/>
</svg>
