<svg width="28" height="28" viewBox="0 0 28 28" fill="none" xmlns="http://www.w3.org/2000/svg">
<path fill-rule="evenodd" clip-rule="evenodd" d="M9.33342 0.666687C7.1947 0.666687 5.20008 0.979729 3.69231 1.52801C2.9439 1.80016 2.24443 2.15573 1.70714 2.61765C1.17418 3.07586 0.666748 3.76369 0.666748 4.66669V20.6667C0.666748 21.4121 1.01683 22.0176 1.4341 22.4566C1.84506 22.889 2.37926 23.2274 2.94162 23.4938C4.07029 24.0285 5.56367 24.3913 7.197 24.5593C7.92952 24.6346 8.58441 24.1019 8.65975 23.3694C8.73509 22.6369 8.20234 21.982 7.46983 21.9066C6.02515 21.7581 4.85186 21.448 4.08337 21.0839C3.69714 20.9009 3.47515 20.7333 3.36704 20.6196C3.35267 20.6044 3.34168 20.5918 3.33341 20.5817V18.3333C4.40586 18.7739 5.74622 19.0768 7.197 19.226C7.92952 19.3013 8.58441 18.7686 8.65975 18.0361C8.73509 17.3035 8.20234 16.6486 7.46983 16.5733C6.02515 16.4247 4.85186 16.1147 4.08337 15.7506C3.69714 15.5676 3.47515 15.4 3.36704 15.2862C3.35267 15.2711 3.34168 15.2585 3.33341 15.2484V13C3.45145 13.0485 3.57124 13.0947 3.69231 13.1387C5.20008 13.687 7.1947 14 9.33342 14C11.4721 14 13.4667 13.687 14.9745 13.1387C15.7229 12.8665 16.4224 12.511 16.9597 12.0491C17.4927 11.5908 18.0001 10.903 18.0001 10V4.66669C18.0001 3.76369 17.4927 3.07586 16.9597 2.61765C16.4224 2.15573 15.7229 1.80016 14.9745 1.52801C13.4667 0.979729 11.4721 0.666687 9.33342 0.666687ZM3.4456 4.63975C3.43462 4.64919 3.42449 4.65817 3.41514 4.66669C3.42449 4.67521 3.43462 4.68419 3.4456 4.69363C3.65048 4.86977 4.02496 5.08882 4.60362 5.29925C5.74999 5.71611 7.42204 6.00002 9.33342 6.00002C11.2448 6.00002 12.9168 5.71611 14.0632 5.29925C14.6419 5.08882 15.0163 4.86977 15.2212 4.69363C15.2322 4.68419 15.2423 4.67521 15.2517 4.66668C15.2423 4.65816 15.2322 4.64918 15.2212 4.63975C15.0163 4.4636 14.6419 4.24455 14.0632 4.03413C12.9168 3.61727 11.2448 3.33335 9.33342 3.33335C7.42204 3.33335 5.74999 3.61727 4.60362 4.03413C4.02496 4.24455 3.65048 4.4636 3.4456 4.63975ZM15.3334 7.66664V9.91573C15.3139 9.93974 15.2794 9.97692 15.2212 10.027C15.0163 10.2031 14.6419 10.4222 14.0632 10.6326C12.9168 11.0494 11.2448 11.3334 9.33342 11.3334C7.42204 11.3334 5.74999 11.0494 4.60362 10.6326C4.02496 10.4222 3.65048 10.2031 3.4456 10.027C3.3874 9.97692 3.3529 9.93974 3.33341 9.91573V7.66664C3.45145 7.71513 3.57124 7.76134 3.69231 7.80536C5.20008 8.35365 7.1947 8.66669 9.33342 8.66669C11.4721 8.66669 13.4667 8.35365 14.9745 7.80536C15.0956 7.76134 15.2154 7.71513 15.3334 7.66664Z" fill="black"/>
<path fill-rule="evenodd" clip-rule="evenodd" d="M11.0405 15.951C10.5075 16.4092 10.0001 17.097 10.0001 18V23.3334C10.0001 24.2363 10.5075 24.9242 11.0405 25.3824C11.5778 25.8443 12.2772 26.1999 13.0256 26.472C14.5334 27.0203 16.528 27.3334 18.6667 27.3334C20.8055 27.3334 22.8001 27.0203 24.3079 26.472C25.0563 26.1999 25.7557 25.8443 26.293 25.3824C26.826 24.9242 27.3334 24.2363 27.3334 23.3334V18C27.3334 17.097 26.826 16.4092 26.293 15.951C25.7557 15.4891 25.0563 15.1335 24.3079 14.8613C22.8001 14.3131 20.8055 14 18.6667 14C16.528 14 14.5334 14.3131 13.0256 14.8613C12.2772 15.1335 11.5778 15.4891 11.0405 15.951ZM24.6667 23.2491V21C24.5487 21.0485 24.4289 21.0947 24.3079 21.1387C22.8001 21.687 20.8055 22 18.6667 22C16.528 22 14.5334 21.687 13.0256 21.1387C12.9046 21.0947 12.7848 21.0485 12.6667 21V23.2491C12.6862 23.2731 12.7207 23.3103 12.7789 23.3603C12.9838 23.5364 13.3583 23.7555 13.937 23.9659C15.0833 24.3828 16.7554 24.6667 18.6667 24.6667C20.5781 24.6667 22.2502 24.3828 23.3965 23.9659C23.9752 23.7555 24.3497 23.5364 24.5546 23.3603C24.6128 23.3103 24.6473 23.2731 24.6667 23.2491ZM12.7485 18C12.7578 17.9915 12.768 17.9825 12.7789 17.9731C12.9838 17.7969 13.3583 17.5779 13.937 17.3675C15.0833 16.9506 16.7554 16.6667 18.6667 16.6667C20.5781 16.6667 22.2502 16.9506 23.3965 17.3675C23.9752 17.5779 24.3497 17.7969 24.5546 17.9731L24.5701 17.9866L24.585 18C24.5757 18.0085 24.5655 18.0175 24.5546 18.027C24.3497 18.2031 23.9752 18.4222 23.3965 18.6326C22.2502 19.0494 20.5781 19.3334 18.6667 19.3334C16.7554 19.3334 15.0833 19.0494 13.937 18.6326C13.3583 18.4222 12.9838 18.2031 12.7789 18.027C12.768 18.0175 12.7578 18.0085 12.7485 18Z" fill="black"/>
</svg>
