<svg width="28" height="28" viewBox="0 0 28 28" fill="none" xmlns="http://www.w3.org/2000/svg">
<path d="M18.9728 10.8032C19.4764 10.266 19.4492 9.42224 18.912 8.9186C18.3748 8.41496 17.531 8.44218 17.0274 8.9794L13.0001 13.2752L10.9728 11.1127C10.4692 10.5755 9.62538 10.5483 9.08816 11.0519C8.55094 11.5556 8.52373 12.3994 9.02737 12.9366L12.0274 16.1366C12.2794 16.4054 12.6315 16.558 13.0001 16.558C13.3686 16.558 13.7207 16.4054 13.9728 16.1366L18.9728 10.8032Z" fill="white"/>
<path fill-rule="evenodd" clip-rule="evenodd" d="M14.4975 0.654253C14.1783 0.525894 13.8218 0.525894 13.5026 0.654253L1.50264 5.47965C0.997619 5.68273 0.666748 6.17239 0.666748 6.71671C0.666748 8.55077 1.40121 12.2122 3.30347 16.0826C5.22004 19.9821 8.38137 24.2163 13.3386 27.049C13.7485 27.2832 14.2517 27.2832 14.6616 27.049C19.6188 24.2163 22.7801 19.9821 24.6967 16.0826C26.599 12.2122 27.3334 8.55077 27.3334 6.71671C27.3334 6.17239 27.0025 5.68273 26.4975 5.47965L14.4975 0.654253ZM5.6967 14.9064C4.24279 11.9482 3.58029 9.2146 3.39214 7.59404L14.0001 3.32841L24.608 7.59404C24.4199 9.2146 23.7574 11.9482 22.3035 14.9064C20.6432 18.2845 18.0031 21.8471 14.0001 24.339C9.99703 21.8471 7.35699 18.2845 5.6967 14.9064Z" fill="white"/>
</svg>
