<svg width="28" height="28" viewBox="0 0 28 28" fill="none" xmlns="http://www.w3.org/2000/svg">
<path fill-rule="evenodd" clip-rule="evenodd" d="M17.9998 1.99999C17.9998 1.26361 18.5968 0.666656 19.3332 0.666656C20.0696 0.666656 20.6665 1.26361 20.6665 1.99999V3.33332H21.9998C24.9454 3.33332 27.3332 5.72114 27.3332 8.66666V24.6667C27.3332 26.145 26.1293 27.3333 24.6622 27.3333L18.6665 27.3333C17.9301 27.3333 17.3332 26.7364 17.3332 26C17.3332 25.2636 17.9301 24.6667 18.6665 24.6667H24.6622L24.6638 24.6666L24.6665 24.6645L24.6665 14L1.99984 14C1.26346 14 0.666505 13.403 0.666505 12.6667V8.66666C0.666505 5.72114 3.05432 3.33332 5.99984 3.33332H7.33317V1.99999C7.33317 1.26361 7.93012 0.666656 8.6665 0.666656C9.40289 0.666656 9.99984 1.26361 9.99984 1.99999V3.33332L17.9998 3.33332V1.99999ZM9.99984 7.33332V5.99999L17.9998 5.99999V7.33332C17.9998 8.0697 18.5968 8.66666 19.3332 8.66666C20.0696 8.66666 20.6665 8.0697 20.6665 7.33332V5.99999H21.9998C23.4726 5.99999 24.6665 7.1939 24.6665 8.66666V11.3333L3.33317 11.3333V8.66666C3.33317 7.1939 4.52708 5.99999 5.99984 5.99999H7.33317V7.33332C7.33317 8.0697 7.93012 8.66666 8.6665 8.66666C9.40288 8.66666 9.99984 8.0697 9.99984 7.33332Z" fill="black"/>
<path d="M6.94265 18.9428C7.46335 18.4221 7.46335 17.5779 6.94265 17.0572C6.42195 16.5365 5.57773 16.5365 5.05703 17.0572L1.05703 21.0572C0.536329 21.5779 0.536329 22.4221 1.05703 22.9428L5.05703 26.9428C5.57773 27.4635 6.42195 27.4635 6.94265 26.9428C7.46335 26.4221 7.46335 25.5779 6.94265 25.0572L5.21879 23.3333H13.9998C14.7362 23.3333 15.3332 22.7364 15.3332 22C15.3332 21.2636 14.7362 20.6667 13.9998 20.6667H5.21879L6.94265 18.9428Z" fill="black"/>
</svg>
